<svg xmlns="http://www.w3.org/2000/svg" viewBox="0 0 640 280"><rect width="640" height="280" fill="#101827"/><g stroke="#253248" stroke-width="1"><path d="M0 55h640M0 110h640M0 165h640M0 220h640M80 0v280M160 0v280M240 0v280M320 0v280M400 0v280M480 0v280M560 0v280"/></g><polyline points="0,205 45,190 90,215 130,130 170,165 210,82 250,145 290,112 330,178 370,122 410,155 450,78 490,110 530,58 570,82 610,38 640,50" fill="none" stroke="#39dba1" stroke-width="5"/><path d="M360 115h150M360 115v42h150" fill="none" stroke="#c5cedb" stroke-width="3"/><path d="M450 180l70-64M520 116l-8 22M520 116l-20 5" fill="none" stroke="#39dba1" stroke-width="6"/><text x="404" y="103" fill="#fff" font-family="Arial" font-size="22" font-weight="700">BREAKOUT</text><text x="20" y="25" fill="#dbe4f0" font-family="Arial" font-size="16" font-weight="700">BREAKOUT &amp; RETEST</text></svg>
